<svg width="62" height="56" viewBox="0 0 62 56" fill="none" xmlns="http://www.w3.org/2000/svg">
<path d="M5.84394 1.336H14.5319C16.0679 1.336 16.8359 1.952 16.8359 3.184C16.8359 3.616 16.6359 4.08 16.2359 4.576C15.5799 4.288 14.6359 4.144 13.4039 4.144H11.5079V16.528C11.5079 17.392 11.7719 17.96 12.2999 18.232C11.6919 18.92 10.9559 19.264 10.0919 19.264C8.52394 19.264 7.73994 18.312 7.73994 16.408V4.144H4.71594C3.17994 4.144 2.41194 3.528 2.41194 2.296C2.41194 1.864 2.61194 1.4 3.01194 0.904C3.66794 1.192 4.61194 1.336 5.84394 1.336ZM24.4299 8.008C23.0539 8.008 22.3659 9.208 22.3659 11.608C22.3659 11.96 22.3819 12.328 22.4139 12.712C22.6059 15.864 23.4859 17.44 25.0539 17.44C26.4299 17.44 27.1179 16.232 27.1179 13.816C27.1179 13.48 27.1019 13.112 27.0699 12.712C26.8459 9.576 25.9659 8.008 24.4299 8.008ZM20.2779 7.888C21.4139 6.752 22.9019 6.184 24.7419 6.184C26.5819 6.184 28.0699 6.752 29.2059 7.888C30.3419 9.008 30.9099 10.616 30.9099 12.712C30.9099 14.808 30.3339 16.424 29.1819 17.56C28.0459 18.696 26.5579 19.264 24.7179 19.264C22.8939 19.264 21.4139 18.696 20.2779 17.56C19.1419 16.424 18.5739 14.808 18.5739 12.712C18.5739 10.616 19.1419 9.008 20.2779 7.888ZM45.6063 9.04V16.528C45.6063 17.392 45.8623 17.96 46.3743 18.232C45.7983 18.92 45.0703 19.264 44.1903 19.264C42.8943 19.264 42.1343 18.616 41.9103 17.32C41.0943 18.616 39.9583 19.264 38.5023 19.264C37.0623 19.264 35.9423 18.896 35.1423 18.16C34.3423 17.424 33.9423 16.352 33.9423 14.944V8.896C33.9423 8.064 33.6703 7.504 33.1263 7.216C33.7343 6.528 34.4543 6.184 35.2863 6.184C36.1343 6.184 36.7503 6.416 37.1343 6.88C37.5183 7.344 37.7103 8.064 37.7103 9.04V14.56C37.7103 15.792 38.3343 16.408 39.5823 16.408C40.6543 16.408 41.4063 15.8 41.8383 14.584V8.896C41.8383 8.064 41.5663 7.504 41.0223 7.216C41.6303 6.528 42.3503 6.184 43.1823 6.184C44.0303 6.184 44.6463 6.416 45.0303 6.88C45.4143 7.344 45.6063 8.064 45.6063 9.04ZM49.2001 16.408V8.896C49.2001 8.064 48.9281 7.504 48.3841 7.216C48.9921 6.528 49.7281 6.184 50.5921 6.184C52.0161 6.184 52.8001 6.952 52.9441 8.488C53.5841 6.952 54.6481 6.184 56.1361 6.184C56.8881 6.184 57.5041 6.408 57.9841 6.856C58.4801 7.304 58.7281 7.904 58.7281 8.656C58.7281 9.408 58.5361 10.008 58.1521 10.456C57.7841 10.888 57.2161 11.104 56.4481 11.104C56.3521 11.104 56.1441 11.088 55.8241 11.056C55.8881 10.768 55.9201 10.584 55.9201 10.504C55.9201 10.104 55.8001 9.792 55.5601 9.568C55.3361 9.328 55.0561 9.208 54.7201 9.208C53.8561 9.208 53.2721 9.864 52.9681 11.176V16.528C52.9681 17.392 53.2321 17.96 53.7601 18.232C53.1521 18.92 52.4161 19.264 51.5521 19.264C49.9841 19.264 49.2001 18.312 49.2001 16.408ZM21.2401 43.04V51.776C21.2401 52.928 21.5921 53.6853 22.2961 54.048C21.4855 54.9653 20.5255 55.424 19.4161 55.424C18.3068 55.424 17.4961 55.1147 16.9841 54.496C16.4721 53.8773 16.2161 52.9173 16.2161 51.616V49.888C15.0001 51.5307 13.1121 52.352 10.5521 52.352C8.07746 52.352 5.79479 51.456 3.70413 49.664C2.70146 48.7893 1.88013 47.6053 1.24013 46.112C0.621458 44.6187 0.312125 42.944 0.312125 41.088C0.312125 37.248 1.42146 34.1333 3.64013 31.744C5.88013 29.3333 9.03746 28.128 13.1121 28.128C15.3948 28.128 17.3361 28.5973 18.9361 29.536C20.5575 30.4747 21.3681 31.6053 21.3681 32.928C21.3681 33.696 21.0055 34.3467 20.2801 34.88C19.5761 35.392 18.7655 35.648 17.8481 35.648C16.9308 35.648 16.1095 35.424 15.3841 34.976C15.4055 34.7627 15.4161 34.56 15.4161 34.368C15.4161 33.408 15.1388 32.5973 14.5841 31.936C14.0295 31.2747 13.1975 30.944 12.0881 30.944C10.1468 30.944 8.61079 31.776 7.48013 33.44C6.28546 35.1467 5.68813 37.344 5.68813 40.032C5.68813 42.72 6.24279 44.8107 7.35213 46.304C8.46146 47.776 10.0188 48.512 12.0241 48.512C14.8188 48.512 16.2161 47.2213 16.2161 44.64V43.136H15.1921C14.0828 43.136 13.0801 43.1573 12.1841 43.2C11.8001 42.6453 11.6081 42.0053 11.6081 41.28C11.6081 40.5333 11.9815 40.0213 12.7281 39.744C13.4748 39.4453 14.7548 39.296 16.5681 39.296C18.3815 39.296 19.6081 39.584 20.2481 40.16C20.9095 40.736 21.2401 41.696 21.2401 43.04ZM32.9534 37.344C31.1187 37.344 30.2014 38.944 30.2014 42.144C30.2014 42.6133 30.2227 43.104 30.2654 43.616C30.5214 47.8187 31.6947 49.92 33.7854 49.92C35.62 49.92 36.5374 48.3093 36.5374 45.088C36.5374 44.64 36.516 44.1493 36.4734 43.616C36.1747 39.4347 35.0014 37.344 32.9534 37.344ZM27.4174 37.184C28.932 35.6693 30.916 34.912 33.3694 34.912C35.8227 34.912 37.8067 35.6693 39.3214 37.184C40.836 38.6773 41.5934 40.8213 41.5934 43.616C41.5934 46.4107 40.8254 48.5653 39.2894 50.08C37.7747 51.5947 35.7907 52.352 33.3374 52.352C30.9054 52.352 28.932 51.5947 27.4174 50.08C25.9027 48.5653 25.1454 46.4107 25.1454 43.616C25.1454 40.8213 25.9027 38.6773 27.4174 37.184ZM52.4846 37.344C50.65 37.344 49.7326 38.944 49.7326 42.144C49.7326 42.6133 49.754 43.104 49.7966 43.616C50.0526 47.8187 51.226 49.92 53.3166 49.92C55.1513 49.92 56.0686 48.3093 56.0686 45.088C56.0686 44.64 56.0473 44.1493 56.0046 43.616C55.706 39.4347 54.5326 37.344 52.4846 37.344ZM46.9486 37.184C48.4633 35.6693 50.4473 34.912 52.9006 34.912C55.354 34.912 57.338 35.6693 58.8526 37.184C60.3673 38.6773 61.1246 40.8213 61.1246 43.616C61.1246 46.4107 60.3566 48.5653 58.8206 50.08C57.306 51.5947 55.322 52.352 52.8686 52.352C50.4366 52.352 48.4633 51.5947 46.9486 50.08C45.434 48.5653 44.6766 46.4107 44.6766 43.616C44.6766 40.8213 45.434 38.6773 46.9486 37.184Z" fill="white"/>
</svg>
